<?xml version="1.0" encoding="utf-8"?>
<!-- Generator: Adobe Illustrator 17.0.0, SVG Export Plug-In . SVG Version: 6.00 Build 0)  -->
<!DOCTYPE svg PUBLIC "-//W3C//DTD SVG 1.1//EN" "http://www.w3.org/Graphics/SVG/1.1/DTD/svg11.dtd">
<svg version="1.1" id="Calque_1" xmlns="http://www.w3.org/2000/svg" xmlns:xlink="http://www.w3.org/1999/xlink" x="0px" y="0px"
	 width="175px" height="82.646px" viewBox="0 0 175 82.646" enable-background="new 0 0 175 82.646" xml:space="preserve">
<path fill="none" stroke="#000000" stroke-width="3" stroke-linecap="round" stroke-linejoin="round" stroke-miterlimit="10" d="
	M11.134,30.444c0,0-1-34,16.333-6.333c3.667-1.333,46.354-24.646,89.687-22.313c0,0,40.98-1.687,55.646,25.646
	c-5,26.333-44.98,30-46.646,30l-6.77,19.75c0,0-13.667,8.667-38.417,0l-7.583-20.583c0,0-37.083-8.5-43.917-13
	c-2.5,3.25-13.833,25.375-15.417-2.271C9.551,41.194-8.866,36.778,11.134,30.444z"/>
<circle fill="none" stroke="#000000" stroke-width="2" stroke-linecap="round" stroke-linejoin="round" stroke-miterlimit="10" cx="92.503" cy="68.548" r="3.5"/>
<circle fill="none" stroke="#000000" stroke-width="2" stroke-linecap="round" stroke-linejoin="round" stroke-miterlimit="10" cx="107.874" cy="68.548" r="3.5"/>
<path fill="none" stroke="#000000" stroke-width="3" stroke-linecap="round" stroke-linejoin="round" stroke-miterlimit="10" d="
	M73.384,56.611c0,0,23.124,4.5,52.77,0.833"/>
<path fill="none" stroke="#000000" stroke-width="3" stroke-linecap="round" stroke-linejoin="round" stroke-miterlimit="10" d="
	M11.134,30.444c0,0,12.235-1.313,13.904,4.52S13.081,41.34,13.081,41.34"/>
<g enable-background="new    ">
	<path d="M60.724,27.219c0-0.256,0.021-0.453,0.064-0.592s0.102-0.245,0.176-0.32c0.074-0.074,0.16-0.12,0.256-0.136
		s0.197-0.024,0.304-0.024c0.106,0,0.208,0.014,0.304,0.04c0.096,0.027,0.181,0.08,0.256,0.16c0.074,0.08,0.133,0.189,0.176,0.328
		c0.042,0.139,0.064,0.314,0.064,0.528v6.72c0,0.64-0.051,1.194-0.152,1.664c-0.102,0.47-0.27,0.856-0.504,1.16
		c-0.235,0.304-0.544,0.53-0.928,0.68s-0.864,0.225-1.44,0.225c-0.203,0-0.448-0.032-0.736-0.097
		c-0.288-0.063-0.563-0.162-0.824-0.296c-0.261-0.133-0.485-0.31-0.672-0.528c-0.187-0.218-0.28-0.482-0.28-0.792
		c0-0.245,0.083-0.416,0.248-0.512s0.35-0.144,0.552-0.144c0.149,0,0.288,0.04,0.416,0.12s0.258,0.168,0.392,0.264
		c0.133,0.096,0.274,0.184,0.424,0.264s0.32,0.12,0.512,0.12c0.235,0,0.438-0.032,0.608-0.096c0.17-0.064,0.312-0.187,0.424-0.368
		s0.197-0.435,0.256-0.76s0.088-0.744,0.088-1.256L60.724,27.219z"/>
	<path d="M68.532,37.748c-0.64,0-1.24-0.128-1.8-0.384c-0.56-0.257-1.048-0.627-1.464-1.112s-0.744-1.08-0.984-1.784
		s-0.36-1.504-0.36-2.399c0-0.843,0.104-1.616,0.312-2.32s0.517-1.312,0.928-1.824s0.92-0.909,1.528-1.192
		c0.608-0.282,1.312-0.424,2.112-0.424c0.65,0,1.269,0.118,1.856,0.353c0.586,0.234,1.101,0.587,1.544,1.056
		c0.442,0.47,0.792,1.056,1.048,1.76c0.256,0.704,0.384,1.525,0.384,2.464c0,0.779-0.104,1.521-0.312,2.225s-0.523,1.32-0.944,1.848
		c-0.422,0.528-0.952,0.949-1.592,1.265C70.147,37.591,69.396,37.748,68.532,37.748z M68.563,36.244c0.587,0,1.099-0.12,1.536-0.36
		s0.8-0.558,1.088-0.952c0.288-0.395,0.501-0.851,0.64-1.368c0.139-0.517,0.208-1.048,0.208-1.592c0-0.661-0.088-1.25-0.264-1.768
		c-0.176-0.518-0.413-0.952-0.712-1.305c-0.299-0.352-0.646-0.621-1.04-0.808s-0.816-0.28-1.264-0.28c-0.534,0-1,0.112-1.4,0.336
		c-0.4,0.225-0.736,0.528-1.008,0.912c-0.272,0.385-0.478,0.835-0.616,1.353c-0.139,0.518-0.208,1.069-0.208,1.656
		c0,0.629,0.08,1.202,0.24,1.72s0.376,0.957,0.648,1.319c0.272,0.363,0.595,0.644,0.968,0.841
		C67.753,36.145,68.147,36.244,68.563,36.244z"/>
	<path d="M78.164,37.588c-0.598,0-1.078-0.048-1.44-0.144c-0.363-0.097-0.643-0.232-0.84-0.408s-0.331-0.393-0.4-0.648
		s-0.12-0.544-0.152-0.864c-0.032-0.373-0.056-0.866-0.072-1.479s-0.024-1.251-0.024-1.912c0-0.32,0.002-0.658,0.008-1.016
		s0.011-0.71,0.016-1.057c0.005-0.346,0.013-0.669,0.024-0.968s0.027-0.555,0.048-0.768c0.032-0.331,0.085-0.63,0.16-0.896
		s0.216-0.496,0.424-0.688c0.208-0.192,0.501-0.339,0.88-0.44c0.378-0.102,0.882-0.152,1.512-0.152c1.429,0,2.498,0.265,3.208,0.792
		c0.709,0.528,1.064,1.278,1.064,2.248c0,0.502-0.11,0.966-0.328,1.393c-0.219,0.427-0.595,0.746-1.128,0.96
		c0.298,0.054,0.57,0.165,0.816,0.336c0.245,0.171,0.456,0.376,0.632,0.616c0.176,0.239,0.31,0.507,0.4,0.8
		c0.091,0.293,0.136,0.59,0.136,0.888c0,0.384-0.08,0.776-0.24,1.176c-0.16,0.4-0.432,0.766-0.816,1.097
		c-0.384,0.33-0.894,0.603-1.528,0.815C79.889,37.481,79.102,37.588,78.164,37.588z M78.547,27.668
		c-0.352,0-0.638,0.029-0.856,0.088c-0.219,0.059-0.384,0.136-0.496,0.232c-0.112,0.096-0.187,0.213-0.224,0.352
		c-0.037,0.139-0.056,0.288-0.056,0.448v2.24c0.149,0.011,0.306,0.016,0.472,0.016s0.323,0,0.472,0c0.384,0,0.76-0.026,1.128-0.08
		c0.368-0.054,0.701-0.144,1-0.272c0.299-0.128,0.539-0.304,0.72-0.527c0.181-0.225,0.272-0.512,0.272-0.864
		c0-0.479-0.195-0.872-0.584-1.176C80.006,27.82,79.39,27.668,78.547,27.668z M81.507,34.132c0-0.384-0.088-0.693-0.264-0.928
		c-0.176-0.234-0.402-0.413-0.68-0.536s-0.587-0.205-0.928-0.248s-0.683-0.064-1.024-0.064c-0.267,0-0.544,0-0.832,0
		s-0.555,0.006-0.8,0.017c-0.011,0.224-0.021,0.453-0.032,0.688c-0.011,0.235-0.019,0.456-0.024,0.664s-0.008,0.39-0.008,0.544
		c0,0.155,0,0.265,0,0.328c0,0.288,0.021,0.528,0.064,0.72c0.042,0.192,0.123,0.348,0.24,0.465s0.286,0.199,0.504,0.248
		c0.218,0.048,0.498,0.071,0.84,0.071c0.938,0,1.664-0.165,2.176-0.496C81.251,35.273,81.507,34.782,81.507,34.132z"/>
	<path d="M92.275,29.427c0.064-0.149,0.162-0.271,0.296-0.368c0.134-0.096,0.274-0.144,0.424-0.144c0.139,0,0.272,0.045,0.4,0.136
		s0.229,0.211,0.304,0.36c0.405,0.832,0.806,1.73,1.2,2.695c0.395,0.966,0.752,1.881,1.072,2.744c0.181-1.322,0.378-2.655,0.592-4
		c0.213-1.344,0.453-2.629,0.72-3.855c0.032-0.139,0.08-0.254,0.145-0.344c0.063-0.091,0.133-0.16,0.208-0.208
		c0.074-0.049,0.151-0.083,0.231-0.104s0.146-0.032,0.2-0.032c0.182,0,0.33,0.051,0.448,0.152c0.117,0.102,0.176,0.237,0.176,0.408
		c0,0.191-0.032,0.53-0.096,1.016c-0.064,0.485-0.149,1.051-0.256,1.696c-0.107,0.646-0.228,1.33-0.36,2.056
		c-0.134,0.726-0.264,1.424-0.393,2.096c-0.128,0.673-0.25,1.286-0.367,1.841c-0.118,0.555-0.214,0.976-0.288,1.264
		c-0.064,0.245-0.16,0.43-0.288,0.552c-0.128,0.123-0.314,0.185-0.561,0.185c-0.256,0-0.472-0.115-0.647-0.345
		c-0.176-0.229-0.368-0.589-0.576-1.08c-0.208-0.49-0.456-1.117-0.744-1.88c-0.288-0.762-0.661-1.677-1.12-2.744
		c-0.469,1.067-0.851,1.984-1.144,2.753c-0.294,0.768-0.544,1.397-0.752,1.888s-0.403,0.851-0.584,1.08
		c-0.182,0.229-0.395,0.344-0.641,0.344c-0.427,0-0.709-0.245-0.848-0.736c-0.085-0.288-0.187-0.706-0.304-1.256
		c-0.118-0.549-0.237-1.16-0.36-1.832s-0.248-1.368-0.375-2.088c-0.128-0.72-0.24-1.399-0.336-2.04
		c-0.096-0.64-0.174-1.202-0.232-1.688s-0.088-0.824-0.088-1.017c0-0.181,0.059-0.33,0.176-0.447
		c0.117-0.118,0.282-0.177,0.495-0.177c0.149,0,0.294,0.046,0.433,0.137c0.139,0.09,0.24,0.274,0.304,0.552
		c0.256,1.227,0.482,2.512,0.68,3.855c0.197,1.345,0.408,2.678,0.633,4c0.33-0.778,0.661-1.604,0.991-2.479
		C91.374,31.497,91.784,30.515,92.275,29.427z"/>
	<path d="M106.275,36.771c-0.107-0.256-0.222-0.552-0.345-0.888c-0.122-0.336-0.253-0.69-0.392-1.063
		c-0.32,0.011-0.656,0.019-1.008,0.023c-0.353,0.006-0.71,0.008-1.072,0.008c-0.459,0-0.875,0-1.248,0s-0.715-0.005-1.023-0.016
		c-0.128,0.373-0.251,0.726-0.368,1.056c-0.118,0.331-0.229,0.624-0.336,0.88c-0.214,0.544-0.523,0.816-0.929,0.816
		c-0.149,0-0.29-0.048-0.424-0.144c-0.133-0.097-0.2-0.235-0.2-0.416c0-0.182,0.032-0.419,0.097-0.713
		c0.063-0.293,0.146-0.607,0.248-0.943c0.101-0.336,0.21-0.683,0.328-1.04c0.117-0.357,0.229-0.69,0.336-1
		c0.106-0.342,0.258-0.776,0.456-1.304c0.197-0.528,0.407-1.08,0.632-1.656c0.224-0.576,0.447-1.145,0.672-1.704
		c0.224-0.561,0.427-1.048,0.607-1.464c0.043-0.106,0.097-0.227,0.16-0.36c0.064-0.133,0.142-0.259,0.232-0.376
		s0.191-0.219,0.304-0.304s0.237-0.128,0.376-0.128s0.267,0.045,0.384,0.136s0.222,0.2,0.312,0.328s0.17,0.262,0.24,0.399
		c0.069,0.14,0.125,0.262,0.168,0.368c0.17,0.427,0.365,0.918,0.584,1.473c0.218,0.555,0.437,1.114,0.655,1.68
		s0.425,1.104,0.616,1.616c0.192,0.512,0.347,0.943,0.464,1.296c0.097,0.31,0.206,0.64,0.328,0.992
		c0.123,0.352,0.237,0.698,0.344,1.04c0.107,0.341,0.195,0.658,0.265,0.951c0.069,0.294,0.104,0.531,0.104,0.713
		c0,0.181-0.066,0.319-0.199,0.416c-0.134,0.096-0.275,0.144-0.425,0.144c-0.191,0-0.367-0.066-0.527-0.2
		C106.531,37.255,106.393,37.05,106.275,36.771z M103.443,33.252c0.256,0,0.512,0.003,0.768,0.008
		c0.256,0.006,0.512,0.014,0.769,0.024c-0.128-0.374-0.257-0.747-0.385-1.12s-0.248-0.73-0.359-1.072
		c-0.112-0.341-0.214-0.658-0.305-0.952c-0.09-0.293-0.168-0.552-0.231-0.775c-0.043-0.139-0.091-0.251-0.145-0.336
		c-0.053-0.086-0.122-0.129-0.208-0.129c-0.085,0-0.154,0.046-0.208,0.137c-0.053,0.091-0.102,0.205-0.144,0.344
		c-0.128,0.438-0.307,1.006-0.536,1.704s-0.472,1.432-0.728,2.2c0.288-0.011,0.575-0.019,0.863-0.024
		C102.883,33.255,103.166,33.252,103.443,33.252z"/>
	<path d="M115.299,36.836c-0.342-0.47-0.664-0.937-0.968-1.4c-0.305-0.464-0.63-0.973-0.977-1.527s-0.741-1.171-1.184-1.849
		c-0.443-0.677-0.974-1.469-1.592-2.376c0,0.801,0,1.518,0,2.152s-0.006,1.224-0.017,1.768s-0.021,1.057-0.032,1.536
		c-0.011,0.48-0.026,0.96-0.048,1.44c-0.011,0.256-0.034,0.453-0.071,0.592c-0.038,0.139-0.089,0.245-0.152,0.32
		c-0.064,0.074-0.136,0.12-0.216,0.136s-0.174,0.024-0.28,0.024c-0.192,0-0.352-0.067-0.48-0.2
		c-0.128-0.134-0.202-0.419-0.224-0.856c-0.054-1.173-0.083-2.349-0.088-3.527c-0.006-1.179-0.008-2.397-0.008-3.656
		c0-0.715,0.008-1.274,0.023-1.681c0.017-0.405,0.054-0.709,0.112-0.911c0.059-0.203,0.139-0.331,0.24-0.385
		c0.101-0.053,0.237-0.08,0.408-0.08c0.17,0,0.395,0.131,0.672,0.393s0.581,0.605,0.912,1.032c0.33,0.427,0.685,0.917,1.063,1.472
		s0.755,1.125,1.128,1.712s0.733,1.168,1.08,1.744s0.664,1.099,0.952,1.568c-0.011-0.502-0.016-1.054-0.016-1.656s0-1.272,0-2.008
		c0-0.843,0.005-1.539,0.016-2.089c0.011-0.549,0.04-0.983,0.088-1.304s0.125-0.544,0.232-0.672
		c0.106-0.128,0.256-0.192,0.447-0.192c0.182,0,0.342,0.06,0.48,0.177s0.219,0.39,0.24,0.815c0.021,0.384,0.037,0.726,0.048,1.024
		s0.021,0.595,0.032,0.888c0.01,0.294,0.016,0.598,0.016,0.912s0,0.67,0,1.064c0,0.479,0,0.938,0,1.376s-0.006,0.869-0.016,1.296
		c-0.011,0.427-0.021,0.858-0.032,1.296s-0.027,0.896-0.048,1.376c-0.011,0.256-0.035,0.453-0.072,0.592s-0.088,0.245-0.152,0.32
		c-0.063,0.074-0.136,0.12-0.216,0.136s-0.174,0.024-0.28,0.024c-0.181,0-0.336-0.054-0.464-0.16S115.544,37.167,115.299,36.836z"/>
	<path d="M125.283,27.86c-0.299,0.021-0.616,0.037-0.952,0.048s-0.707,0.021-1.112,0.031c0.011,0.288,0.021,0.558,0.032,0.809
		s0.021,0.504,0.032,0.76c0.01,0.256,0.019,0.522,0.023,0.8c0.006,0.277,0.008,0.587,0.008,0.929c0,0.479,0,0.941,0,1.384
		s-0.005,0.886-0.016,1.328s-0.021,0.888-0.032,1.336c-0.011,0.447-0.026,0.912-0.048,1.392c-0.011,0.256-0.034,0.453-0.072,0.592
		c-0.037,0.139-0.088,0.246-0.151,0.32c-0.064,0.074-0.139,0.12-0.225,0.136c-0.085,0.017-0.181,0.024-0.288,0.024
		c-0.191,0-0.354-0.067-0.487-0.2c-0.134-0.133-0.211-0.419-0.232-0.856c-0.021-0.384-0.034-0.789-0.04-1.216
		c-0.005-0.426-0.014-0.885-0.023-1.376c-0.011-0.49-0.017-1.021-0.017-1.592c0-0.57,0-1.202,0-1.896
		c0-0.587,0.003-1.099,0.008-1.536c0.006-0.438,0.019-0.816,0.04-1.137h-0.655c-0.448,0-0.83-0.005-1.145-0.016
		s-0.573-0.04-0.775-0.088c-0.203-0.048-0.35-0.125-0.44-0.232c-0.091-0.106-0.136-0.256-0.136-0.447
		c0-0.097,0.011-0.185,0.032-0.265c0.021-0.08,0.068-0.154,0.144-0.224c0.074-0.069,0.179-0.125,0.312-0.168
		c0.134-0.043,0.307-0.074,0.521-0.096c0.202-0.011,0.384-0.021,0.544-0.032s0.32-0.021,0.48-0.032
		c0.159-0.011,0.325-0.016,0.495-0.016c0.171,0,0.368,0,0.593,0c0.629,0,1.224,0.005,1.783,0.016
		c0.561,0.011,1.155,0.032,1.784,0.064c0.256,0.021,0.453,0.051,0.592,0.088s0.246,0.088,0.32,0.151
		c0.074,0.064,0.12,0.139,0.136,0.225c0.017,0.085,0.024,0.182,0.024,0.288c0,0.191-0.066,0.352-0.2,0.479
		C126.006,27.763,125.72,27.839,125.283,27.86z"/>
	<path d="M127.555,35.156c-0.021-0.342-0.043-0.806-0.063-1.393c-0.021-0.586-0.032-1.189-0.032-1.808
		c0-0.353,0.002-0.718,0.008-1.096c0.005-0.379,0.014-0.766,0.024-1.16c0.021-0.79,0.071-1.408,0.151-1.856s0.24-0.784,0.48-1.008
		c0.239-0.224,0.578-0.362,1.016-0.416s1.019-0.08,1.744-0.08c0.011,0,0.125,0,0.344,0s0.482,0.003,0.792,0.008
		c0.31,0.006,0.632,0.014,0.968,0.024c0.337,0.011,0.616,0.021,0.841,0.032c0.234,0.021,0.424,0.051,0.567,0.088
		c0.145,0.037,0.254,0.085,0.328,0.144s0.123,0.128,0.145,0.208c0.021,0.08,0.031,0.168,0.031,0.264
		c0,0.246-0.069,0.425-0.208,0.536c-0.139,0.112-0.421,0.185-0.848,0.217c-0.214,0.021-0.525,0.034-0.936,0.039
		c-0.411,0.006-0.83,0.009-1.257,0.009s-0.811,0.002-1.151,0.008c-0.342,0.006-0.555,0.008-0.641,0.008
		c-0.277,0.011-0.472,0.072-0.584,0.184c-0.111,0.112-0.168,0.377-0.168,0.792c0,0.097,0.009,0.328,0.024,0.696
		s0.023,0.883,0.023,1.544h1.328c0.565,0,1.027,0.008,1.385,0.024c0.356,0.016,0.634,0.051,0.832,0.104
		c0.197,0.054,0.333,0.139,0.407,0.256c0.075,0.118,0.112,0.272,0.112,0.465c0,0.096-0.008,0.184-0.024,0.264
		c-0.016,0.08-0.062,0.149-0.136,0.208s-0.182,0.106-0.319,0.144c-0.14,0.038-0.337,0.067-0.593,0.088
		c-0.31,0.022-0.6,0.035-0.872,0.04c-0.271,0.006-0.541,0.009-0.808,0.009h-1.344c0,0.159,0,0.352,0,0.575c0,0.225,0,0.454,0,0.688
		s0.002,0.464,0.008,0.688c0.005,0.225,0.013,0.406,0.023,0.545c0.011,0.17,0.035,0.314,0.072,0.432s0.106,0.214,0.208,0.288
		s0.251,0.128,0.448,0.16c0.197,0.031,0.461,0.048,0.792,0.048h3.44c0.373,0,0.607,0.069,0.703,0.208
		c0.097,0.139,0.145,0.325,0.145,0.56c0,0.192-0.043,0.339-0.128,0.44c-0.086,0.102-0.291,0.176-0.616,0.224
		s-0.811,0.077-1.456,0.088s-1.533,0.017-2.664,0.017c-0.479,0-0.875-0.043-1.184-0.128c-0.31-0.086-0.561-0.229-0.752-0.433
		c-0.192-0.202-0.334-0.466-0.424-0.792C127.648,36.022,127.587,35.625,127.555,35.156z"/>
	<path d="M139.684,26.276c1.098,0,1.978,0.165,2.64,0.495c0.661,0.331,1.168,0.769,1.52,1.312c0.353,0.544,0.584,1.163,0.696,1.855
		c0.112,0.694,0.168,1.397,0.168,2.112c0,0.779-0.099,1.515-0.296,2.208s-0.502,1.299-0.912,1.816
		c-0.411,0.518-0.936,0.928-1.576,1.231c-0.64,0.305-1.402,0.456-2.288,0.456c-0.704,0-1.267-0.051-1.688-0.151
		c-0.422-0.102-0.747-0.254-0.977-0.456c-0.229-0.203-0.381-0.459-0.456-0.769c-0.074-0.309-0.111-0.672-0.111-1.088v-6.016
		c0-0.459,0.04-0.875,0.12-1.248s0.237-0.69,0.472-0.952s0.568-0.461,1-0.6S138.989,26.276,139.684,26.276z M139.747,36.164
		c0.661,0,1.208-0.12,1.64-0.36c0.433-0.24,0.776-0.557,1.032-0.952c0.256-0.395,0.435-0.842,0.536-1.344
		c0.102-0.501,0.152-1.013,0.152-1.536c0-0.479-0.038-0.962-0.112-1.448c-0.075-0.484-0.229-0.925-0.464-1.319
		c-0.235-0.395-0.571-0.715-1.008-0.96c-0.438-0.245-1.02-0.368-1.744-0.368c-0.662,0-1.12,0.096-1.376,0.288
		c-0.256,0.191-0.384,0.485-0.384,0.88v6.128c0,0.331,0.119,0.579,0.359,0.744S139.075,36.164,139.747,36.164z"/>
</g>
<g enable-background="new    ">
	<path fill="none" stroke="#000000" stroke-width="0.5" stroke-miterlimit="10" d="M60.724,27.219c0-0.256,0.021-0.453,0.064-0.592
		s0.102-0.245,0.176-0.32c0.074-0.074,0.16-0.12,0.256-0.136s0.197-0.024,0.304-0.024c0.106,0,0.208,0.014,0.304,0.04
		c0.096,0.027,0.181,0.08,0.256,0.16c0.074,0.08,0.133,0.189,0.176,0.328c0.042,0.139,0.064,0.314,0.064,0.528v6.72
		c0,0.64-0.051,1.194-0.152,1.664c-0.102,0.47-0.27,0.856-0.504,1.16c-0.235,0.304-0.544,0.53-0.928,0.68s-0.864,0.225-1.44,0.225
		c-0.203,0-0.448-0.032-0.736-0.097c-0.288-0.063-0.563-0.162-0.824-0.296c-0.261-0.133-0.485-0.31-0.672-0.528
		c-0.187-0.218-0.28-0.482-0.28-0.792c0-0.245,0.083-0.416,0.248-0.512s0.35-0.144,0.552-0.144c0.149,0,0.288,0.04,0.416,0.12
		s0.258,0.168,0.392,0.264c0.133,0.096,0.274,0.184,0.424,0.264s0.32,0.12,0.512,0.12c0.235,0,0.438-0.032,0.608-0.096
		c0.17-0.064,0.312-0.187,0.424-0.368s0.197-0.435,0.256-0.76s0.088-0.744,0.088-1.256L60.724,27.219z"/>
	<path fill="none" stroke="#000000" stroke-width="0.5" stroke-miterlimit="10" d="M68.532,37.748c-0.64,0-1.24-0.128-1.8-0.384
		c-0.56-0.257-1.048-0.627-1.464-1.112s-0.744-1.08-0.984-1.784s-0.36-1.504-0.36-2.399c0-0.843,0.104-1.616,0.312-2.32
		s0.517-1.312,0.928-1.824s0.92-0.909,1.528-1.192c0.608-0.282,1.312-0.424,2.112-0.424c0.65,0,1.269,0.118,1.856,0.353
		c0.586,0.234,1.101,0.587,1.544,1.056c0.442,0.47,0.792,1.056,1.048,1.76c0.256,0.704,0.384,1.525,0.384,2.464
		c0,0.779-0.104,1.521-0.312,2.225s-0.523,1.32-0.944,1.848c-0.422,0.528-0.952,0.949-1.592,1.265
		C70.147,37.591,69.396,37.748,68.532,37.748z M68.563,36.244c0.587,0,1.099-0.12,1.536-0.36s0.8-0.558,1.088-0.952
		c0.288-0.395,0.501-0.851,0.64-1.368c0.139-0.517,0.208-1.048,0.208-1.592c0-0.661-0.088-1.25-0.264-1.768
		c-0.176-0.518-0.413-0.952-0.712-1.305c-0.299-0.352-0.646-0.621-1.04-0.808s-0.816-0.28-1.264-0.28c-0.534,0-1,0.112-1.4,0.336
		c-0.4,0.225-0.736,0.528-1.008,0.912c-0.272,0.385-0.478,0.835-0.616,1.353c-0.139,0.518-0.208,1.069-0.208,1.656
		c0,0.629,0.08,1.202,0.24,1.72s0.376,0.957,0.648,1.319c0.272,0.363,0.595,0.644,0.968,0.841
		C67.753,36.145,68.147,36.244,68.563,36.244z"/>
	<path fill="none" stroke="#000000" stroke-width="0.5" stroke-miterlimit="10" d="M78.164,37.588c-0.598,0-1.078-0.048-1.44-0.144
		c-0.363-0.097-0.643-0.232-0.84-0.408s-0.331-0.393-0.4-0.648s-0.12-0.544-0.152-0.864c-0.032-0.373-0.056-0.866-0.072-1.479
		s-0.024-1.251-0.024-1.912c0-0.32,0.002-0.658,0.008-1.016s0.011-0.71,0.016-1.057c0.005-0.346,0.013-0.669,0.024-0.968
		s0.027-0.555,0.048-0.768c0.032-0.331,0.085-0.63,0.16-0.896s0.216-0.496,0.424-0.688c0.208-0.192,0.501-0.339,0.88-0.44
		c0.378-0.102,0.882-0.152,1.512-0.152c1.429,0,2.498,0.265,3.208,0.792c0.709,0.528,1.064,1.278,1.064,2.248
		c0,0.502-0.11,0.966-0.328,1.393c-0.219,0.427-0.595,0.746-1.128,0.96c0.298,0.054,0.57,0.165,0.816,0.336
		c0.245,0.171,0.456,0.376,0.632,0.616c0.176,0.239,0.31,0.507,0.4,0.8c0.091,0.293,0.136,0.59,0.136,0.888
		c0,0.384-0.08,0.776-0.24,1.176c-0.16,0.4-0.432,0.766-0.816,1.097c-0.384,0.33-0.894,0.603-1.528,0.815
		C79.889,37.481,79.102,37.588,78.164,37.588z M78.547,27.668c-0.352,0-0.638,0.029-0.856,0.088
		c-0.219,0.059-0.384,0.136-0.496,0.232c-0.112,0.096-0.187,0.213-0.224,0.352c-0.037,0.139-0.056,0.288-0.056,0.448v2.24
		c0.149,0.011,0.306,0.016,0.472,0.016s0.323,0,0.472,0c0.384,0,0.76-0.026,1.128-0.08c0.368-0.054,0.701-0.144,1-0.272
		c0.299-0.128,0.539-0.304,0.72-0.527c0.181-0.225,0.272-0.512,0.272-0.864c0-0.479-0.195-0.872-0.584-1.176
		C80.006,27.82,79.39,27.668,78.547,27.668z M81.507,34.132c0-0.384-0.088-0.693-0.264-0.928c-0.176-0.234-0.402-0.413-0.68-0.536
		s-0.587-0.205-0.928-0.248s-0.683-0.064-1.024-0.064c-0.267,0-0.544,0-0.832,0s-0.555,0.006-0.8,0.017
		c-0.011,0.224-0.021,0.453-0.032,0.688c-0.011,0.235-0.019,0.456-0.024,0.664s-0.008,0.39-0.008,0.544c0,0.155,0,0.265,0,0.328
		c0,0.288,0.021,0.528,0.064,0.72c0.042,0.192,0.123,0.348,0.24,0.465s0.286,0.199,0.504,0.248c0.218,0.048,0.498,0.071,0.84,0.071
		c0.938,0,1.664-0.165,2.176-0.496C81.251,35.273,81.507,34.782,81.507,34.132z"/>
	<path fill="none" stroke="#000000" stroke-width="0.5" stroke-miterlimit="10" d="M92.275,29.427
		c0.064-0.149,0.162-0.271,0.296-0.368c0.134-0.096,0.274-0.144,0.424-0.144c0.139,0,0.272,0.045,0.4,0.136s0.229,0.211,0.304,0.36
		c0.405,0.832,0.806,1.73,1.2,2.695c0.395,0.966,0.752,1.881,1.072,2.744c0.181-1.322,0.378-2.655,0.592-4
		c0.213-1.344,0.453-2.629,0.72-3.855c0.032-0.139,0.08-0.254,0.145-0.344c0.063-0.091,0.133-0.16,0.208-0.208
		c0.074-0.049,0.151-0.083,0.231-0.104s0.146-0.032,0.2-0.032c0.182,0,0.33,0.051,0.448,0.152c0.117,0.102,0.176,0.237,0.176,0.408
		c0,0.191-0.032,0.53-0.096,1.016c-0.064,0.485-0.149,1.051-0.256,1.696c-0.107,0.646-0.228,1.33-0.36,2.056
		c-0.134,0.726-0.264,1.424-0.393,2.096c-0.128,0.673-0.25,1.286-0.367,1.841c-0.118,0.555-0.214,0.976-0.288,1.264
		c-0.064,0.245-0.16,0.43-0.288,0.552c-0.128,0.123-0.314,0.185-0.561,0.185c-0.256,0-0.472-0.115-0.647-0.345
		c-0.176-0.229-0.368-0.589-0.576-1.08c-0.208-0.49-0.456-1.117-0.744-1.88c-0.288-0.762-0.661-1.677-1.12-2.744
		c-0.469,1.067-0.851,1.984-1.144,2.753c-0.294,0.768-0.544,1.397-0.752,1.888s-0.403,0.851-0.584,1.08
		c-0.182,0.229-0.395,0.344-0.641,0.344c-0.427,0-0.709-0.245-0.848-0.736c-0.085-0.288-0.187-0.706-0.304-1.256
		c-0.118-0.549-0.237-1.16-0.36-1.832s-0.248-1.368-0.375-2.088c-0.128-0.72-0.24-1.399-0.336-2.04
		c-0.096-0.64-0.174-1.202-0.232-1.688s-0.088-0.824-0.088-1.017c0-0.181,0.059-0.33,0.176-0.447
		c0.117-0.118,0.282-0.177,0.495-0.177c0.149,0,0.294,0.046,0.433,0.137c0.139,0.09,0.24,0.274,0.304,0.552
		c0.256,1.227,0.482,2.512,0.68,3.855c0.197,1.345,0.408,2.678,0.633,4c0.33-0.778,0.661-1.604,0.991-2.479
		C91.374,31.497,91.784,30.515,92.275,29.427z"/>
	<path fill="none" stroke="#000000" stroke-width="0.5" stroke-miterlimit="10" d="M106.275,36.771
		c-0.107-0.256-0.222-0.552-0.345-0.888c-0.122-0.336-0.253-0.69-0.392-1.063c-0.32,0.011-0.656,0.019-1.008,0.023
		c-0.353,0.006-0.71,0.008-1.072,0.008c-0.459,0-0.875,0-1.248,0s-0.715-0.005-1.023-0.016c-0.128,0.373-0.251,0.726-0.368,1.056
		c-0.118,0.331-0.229,0.624-0.336,0.88c-0.214,0.544-0.523,0.816-0.929,0.816c-0.149,0-0.29-0.048-0.424-0.144
		c-0.133-0.097-0.2-0.235-0.2-0.416c0-0.182,0.032-0.419,0.097-0.713c0.063-0.293,0.146-0.607,0.248-0.943
		c0.101-0.336,0.21-0.683,0.328-1.04c0.117-0.357,0.229-0.69,0.336-1c0.106-0.342,0.258-0.776,0.456-1.304
		c0.197-0.528,0.407-1.08,0.632-1.656c0.224-0.576,0.447-1.145,0.672-1.704c0.224-0.561,0.427-1.048,0.607-1.464
		c0.043-0.106,0.097-0.227,0.16-0.36c0.064-0.133,0.142-0.259,0.232-0.376s0.191-0.219,0.304-0.304s0.237-0.128,0.376-0.128
		s0.267,0.045,0.384,0.136s0.222,0.2,0.312,0.328s0.17,0.262,0.24,0.399c0.069,0.14,0.125,0.262,0.168,0.368
		c0.17,0.427,0.365,0.918,0.584,1.473c0.218,0.555,0.437,1.114,0.655,1.68s0.425,1.104,0.616,1.616
		c0.192,0.512,0.347,0.943,0.464,1.296c0.097,0.31,0.206,0.64,0.328,0.992c0.123,0.352,0.237,0.698,0.344,1.04
		c0.107,0.341,0.195,0.658,0.265,0.951c0.069,0.294,0.104,0.531,0.104,0.713c0,0.181-0.066,0.319-0.199,0.416
		c-0.134,0.096-0.275,0.144-0.425,0.144c-0.191,0-0.367-0.066-0.527-0.2C106.531,37.255,106.393,37.05,106.275,36.771z
		 M103.443,33.252c0.256,0,0.512,0.003,0.768,0.008c0.256,0.006,0.512,0.014,0.769,0.024c-0.128-0.374-0.257-0.747-0.385-1.12
		s-0.248-0.73-0.359-1.072c-0.112-0.341-0.214-0.658-0.305-0.952c-0.09-0.293-0.168-0.552-0.231-0.775
		c-0.043-0.139-0.091-0.251-0.145-0.336c-0.053-0.086-0.122-0.129-0.208-0.129c-0.085,0-0.154,0.046-0.208,0.137
		c-0.053,0.091-0.102,0.205-0.144,0.344c-0.128,0.438-0.307,1.006-0.536,1.704s-0.472,1.432-0.728,2.2
		c0.288-0.011,0.575-0.019,0.863-0.024C102.883,33.255,103.166,33.252,103.443,33.252z"/>
	<path fill="none" stroke="#000000" stroke-width="0.5" stroke-miterlimit="10" d="M115.299,36.836
		c-0.342-0.47-0.664-0.937-0.968-1.4c-0.305-0.464-0.63-0.973-0.977-1.527s-0.741-1.171-1.184-1.849
		c-0.443-0.677-0.974-1.469-1.592-2.376c0,0.801,0,1.518,0,2.152s-0.006,1.224-0.017,1.768s-0.021,1.057-0.032,1.536
		c-0.011,0.48-0.026,0.96-0.048,1.44c-0.011,0.256-0.034,0.453-0.071,0.592c-0.038,0.139-0.089,0.245-0.152,0.32
		c-0.064,0.074-0.136,0.12-0.216,0.136s-0.174,0.024-0.28,0.024c-0.192,0-0.352-0.067-0.48-0.2
		c-0.128-0.134-0.202-0.419-0.224-0.856c-0.054-1.173-0.083-2.349-0.088-3.527c-0.006-1.179-0.008-2.397-0.008-3.656
		c0-0.715,0.008-1.274,0.023-1.681c0.017-0.405,0.054-0.709,0.112-0.911c0.059-0.203,0.139-0.331,0.24-0.385
		c0.101-0.053,0.237-0.08,0.408-0.08c0.17,0,0.395,0.131,0.672,0.393s0.581,0.605,0.912,1.032c0.33,0.427,0.685,0.917,1.063,1.472
		s0.755,1.125,1.128,1.712s0.733,1.168,1.08,1.744s0.664,1.099,0.952,1.568c-0.011-0.502-0.016-1.054-0.016-1.656s0-1.272,0-2.008
		c0-0.843,0.005-1.539,0.016-2.089c0.011-0.549,0.04-0.983,0.088-1.304s0.125-0.544,0.232-0.672
		c0.106-0.128,0.256-0.192,0.447-0.192c0.182,0,0.342,0.06,0.48,0.177s0.219,0.39,0.24,0.815c0.021,0.384,0.037,0.726,0.048,1.024
		s0.021,0.595,0.032,0.888c0.01,0.294,0.016,0.598,0.016,0.912s0,0.67,0,1.064c0,0.479,0,0.938,0,1.376s-0.006,0.869-0.016,1.296
		c-0.011,0.427-0.021,0.858-0.032,1.296s-0.027,0.896-0.048,1.376c-0.011,0.256-0.035,0.453-0.072,0.592s-0.088,0.245-0.152,0.32
		c-0.063,0.074-0.136,0.12-0.216,0.136s-0.174,0.024-0.28,0.024c-0.181,0-0.336-0.054-0.464-0.16S115.544,37.167,115.299,36.836z"/>
	<path fill="none" stroke="#000000" stroke-width="0.5" stroke-miterlimit="10" d="M125.283,27.86
		c-0.299,0.021-0.616,0.037-0.952,0.048s-0.707,0.021-1.112,0.031c0.011,0.288,0.021,0.558,0.032,0.809s0.021,0.504,0.032,0.76
		c0.01,0.256,0.019,0.522,0.023,0.8c0.006,0.277,0.008,0.587,0.008,0.929c0,0.479,0,0.941,0,1.384s-0.005,0.886-0.016,1.328
		s-0.021,0.888-0.032,1.336c-0.011,0.447-0.026,0.912-0.048,1.392c-0.011,0.256-0.034,0.453-0.072,0.592
		c-0.037,0.139-0.088,0.246-0.151,0.32c-0.064,0.074-0.139,0.12-0.225,0.136c-0.085,0.017-0.181,0.024-0.288,0.024
		c-0.191,0-0.354-0.067-0.487-0.2c-0.134-0.133-0.211-0.419-0.232-0.856c-0.021-0.384-0.034-0.789-0.04-1.216
		c-0.005-0.426-0.014-0.885-0.023-1.376c-0.011-0.49-0.017-1.021-0.017-1.592c0-0.57,0-1.202,0-1.896
		c0-0.587,0.003-1.099,0.008-1.536c0.006-0.438,0.019-0.816,0.04-1.137h-0.655c-0.448,0-0.83-0.005-1.145-0.016
		s-0.573-0.04-0.775-0.088c-0.203-0.048-0.35-0.125-0.44-0.232c-0.091-0.106-0.136-0.256-0.136-0.447
		c0-0.097,0.011-0.185,0.032-0.265c0.021-0.08,0.068-0.154,0.144-0.224c0.074-0.069,0.179-0.125,0.312-0.168
		c0.134-0.043,0.307-0.074,0.521-0.096c0.202-0.011,0.384-0.021,0.544-0.032s0.32-0.021,0.48-0.032
		c0.159-0.011,0.325-0.016,0.495-0.016c0.171,0,0.368,0,0.593,0c0.629,0,1.224,0.005,1.783,0.016
		c0.561,0.011,1.155,0.032,1.784,0.064c0.256,0.021,0.453,0.051,0.592,0.088s0.246,0.088,0.32,0.151
		c0.074,0.064,0.12,0.139,0.136,0.225c0.017,0.085,0.024,0.182,0.024,0.288c0,0.191-0.066,0.352-0.2,0.479
		C126.006,27.763,125.72,27.839,125.283,27.86z"/>
	<path fill="none" stroke="#000000" stroke-width="0.5" stroke-miterlimit="10" d="M127.555,35.156
		c-0.021-0.342-0.043-0.806-0.063-1.393c-0.021-0.586-0.032-1.189-0.032-1.808c0-0.353,0.002-0.718,0.008-1.096
		c0.005-0.379,0.014-0.766,0.024-1.16c0.021-0.79,0.071-1.408,0.151-1.856s0.24-0.784,0.48-1.008
		c0.239-0.224,0.578-0.362,1.016-0.416s1.019-0.08,1.744-0.08c0.011,0,0.125,0,0.344,0s0.482,0.003,0.792,0.008
		c0.31,0.006,0.632,0.014,0.968,0.024c0.337,0.011,0.616,0.021,0.841,0.032c0.234,0.021,0.424,0.051,0.567,0.088
		c0.145,0.037,0.254,0.085,0.328,0.144s0.123,0.128,0.145,0.208c0.021,0.08,0.031,0.168,0.031,0.264
		c0,0.246-0.069,0.425-0.208,0.536c-0.139,0.112-0.421,0.185-0.848,0.217c-0.214,0.021-0.525,0.034-0.936,0.039
		c-0.411,0.006-0.83,0.009-1.257,0.009s-0.811,0.002-1.151,0.008c-0.342,0.006-0.555,0.008-0.641,0.008
		c-0.277,0.011-0.472,0.072-0.584,0.184c-0.111,0.112-0.168,0.377-0.168,0.792c0,0.097,0.009,0.328,0.024,0.696
		s0.023,0.883,0.023,1.544h1.328c0.565,0,1.027,0.008,1.385,0.024c0.356,0.016,0.634,0.051,0.832,0.104
		c0.197,0.054,0.333,0.139,0.407,0.256c0.075,0.118,0.112,0.272,0.112,0.465c0,0.096-0.008,0.184-0.024,0.264
		c-0.016,0.08-0.062,0.149-0.136,0.208s-0.182,0.106-0.319,0.144c-0.14,0.038-0.337,0.067-0.593,0.088
		c-0.31,0.022-0.6,0.035-0.872,0.04c-0.271,0.006-0.541,0.009-0.808,0.009h-1.344c0,0.159,0,0.352,0,0.575c0,0.225,0,0.454,0,0.688
		s0.002,0.464,0.008,0.688c0.005,0.225,0.013,0.406,0.023,0.545c0.011,0.17,0.035,0.314,0.072,0.432s0.106,0.214,0.208,0.288
		s0.251,0.128,0.448,0.16c0.197,0.031,0.461,0.048,0.792,0.048h3.44c0.373,0,0.607,0.069,0.703,0.208
		c0.097,0.139,0.145,0.325,0.145,0.56c0,0.192-0.043,0.339-0.128,0.44c-0.086,0.102-0.291,0.176-0.616,0.224
		s-0.811,0.077-1.456,0.088s-1.533,0.017-2.664,0.017c-0.479,0-0.875-0.043-1.184-0.128c-0.31-0.086-0.561-0.229-0.752-0.433
		c-0.192-0.202-0.334-0.466-0.424-0.792C127.648,36.022,127.587,35.625,127.555,35.156z"/>
	<path fill="none" stroke="#000000" stroke-width="0.5" stroke-miterlimit="10" d="M139.684,26.276c1.098,0,1.978,0.165,2.64,0.495
		c0.661,0.331,1.168,0.769,1.52,1.312c0.353,0.544,0.584,1.163,0.696,1.855c0.112,0.694,0.168,1.397,0.168,2.112
		c0,0.779-0.099,1.515-0.296,2.208s-0.502,1.299-0.912,1.816c-0.411,0.518-0.936,0.928-1.576,1.231
		c-0.64,0.305-1.402,0.456-2.288,0.456c-0.704,0-1.267-0.051-1.688-0.151c-0.422-0.102-0.747-0.254-0.977-0.456
		c-0.229-0.203-0.381-0.459-0.456-0.769c-0.074-0.309-0.111-0.672-0.111-1.088v-6.016c0-0.459,0.04-0.875,0.12-1.248
		s0.237-0.69,0.472-0.952s0.568-0.461,1-0.6S138.989,26.276,139.684,26.276z M139.747,36.164c0.661,0,1.208-0.12,1.64-0.36
		c0.433-0.24,0.776-0.557,1.032-0.952c0.256-0.395,0.435-0.842,0.536-1.344c0.102-0.501,0.152-1.013,0.152-1.536
		c0-0.479-0.038-0.962-0.112-1.448c-0.075-0.484-0.229-0.925-0.464-1.319c-0.235-0.395-0.571-0.715-1.008-0.96
		c-0.438-0.245-1.02-0.368-1.744-0.368c-0.662,0-1.12,0.096-1.376,0.288c-0.256,0.191-0.384,0.485-0.384,0.88v6.128
		c0,0.331,0.119,0.579,0.359,0.744S139.075,36.164,139.747,36.164z"/>
</g>
</svg>
