<?xml version="1.0" encoding="utf-8"?>
<!-- Generator: Adobe Illustrator 17.0.0, SVG Export Plug-In . SVG Version: 6.00 Build 0)  -->
<!DOCTYPE svg PUBLIC "-//W3C//DTD SVG 1.1//EN" "http://www.w3.org/Graphics/SVG/1.1/DTD/svg11.dtd">
<svg version="1.1" id="Calque_1" xmlns="http://www.w3.org/2000/svg" xmlns:xlink="http://www.w3.org/1999/xlink" x="0px" y="0px"
	 width="322px" height="359px" viewBox="0 0 322 359" enable-background="new 0 0 322 359" xml:space="preserve">
<line fill="none" stroke="#000000" stroke-width="3" stroke-linecap="round" stroke-linejoin="round" stroke-miterlimit="10" x1="0" y1="358.5" x2="79" y2="358.5"/>
<rect x="79" y="355" fill="#FFFFFF" width="87" height="5"/>
<path fill="#FFFFFF" stroke="#000000" stroke-width="3" stroke-linecap="round" stroke-linejoin="round" stroke-miterlimit="10" d="
	M79.051,357.459V135.043c0-25.29,19.448-45.792,43.438-45.792l0,0c23.99,0,43.438,20.502,43.438,45.792V357.46"/>
<g>
	
		<line fill="none" stroke="#000000" stroke-width="3" stroke-linecap="round" stroke-linejoin="round" stroke-miterlimit="10" x1="115.054" y1="89.251" x2="115.054" y2="39.921"/>
	
		<polyline fill="none" stroke="#000000" stroke-width="3" stroke-linecap="round" stroke-linejoin="round" stroke-miterlimit="10" points="
		115.125,39.921 109.054,39.921 109.054,13.921 135.054,13.921 135.054,39.921 115.054,39.921 	"/>
	
		<line fill="none" stroke="#000000" stroke-width="3" stroke-linecap="round" stroke-linejoin="round" stroke-miterlimit="10" x1="129.054" y1="39.921" x2="129.054" y2="89.251"/>
	
		<polyline fill="none" stroke="#000000" stroke-width="3" stroke-linecap="round" stroke-linejoin="round" stroke-miterlimit="10" points="
		115.054,13.921 115.054,2.313 129.054,2.313 129.054,13.921 	"/>
	
		<polyline fill="none" stroke="#000000" stroke-width="3" stroke-linecap="round" stroke-linejoin="round" stroke-miterlimit="10" points="
		135.054,19.921 146.983,19.921 146.983,33.921 135.054,33.921 	"/>
	
		<polyline fill="none" stroke="#000000" stroke-width="3" stroke-linecap="round" stroke-linejoin="round" stroke-miterlimit="10" points="
		109.054,33.921 56.983,33.921 56.983,19.921 109.054,19.921 	"/>
	
		<line fill="none" stroke="#000000" stroke-width="3" stroke-linecap="round" stroke-linejoin="round" stroke-miterlimit="10" x1="115.054" y1="80.584" x2="120.733" y2="80.584"/>
	
		<line fill="none" stroke="#000000" stroke-width="3" stroke-linecap="round" stroke-linejoin="round" stroke-miterlimit="10" x1="115.054" y1="72.584" x2="120.733" y2="72.584"/>
	
		<line fill="none" stroke="#000000" stroke-width="3" stroke-linecap="round" stroke-linejoin="round" stroke-miterlimit="10" x1="115.054" y1="64.584" x2="120.733" y2="64.584"/>
	
		<line fill="none" stroke="#000000" stroke-width="3" stroke-linecap="round" stroke-linejoin="round" stroke-miterlimit="10" x1="115.054" y1="56.584" x2="120.733" y2="56.584"/>
	
		<line fill="none" stroke="#000000" stroke-width="3" stroke-linecap="round" stroke-linejoin="round" stroke-miterlimit="10" x1="115.054" y1="48.584" x2="120.733" y2="48.584"/>
	
		<line fill="none" stroke="#000000" stroke-width="3" stroke-linecap="round" stroke-linejoin="round" stroke-miterlimit="10" x1="98.233" y1="33.921" x2="98.233" y2="28.242"/>
	
		<line fill="none" stroke="#000000" stroke-width="3" stroke-linecap="round" stroke-linejoin="round" stroke-miterlimit="10" x1="90.233" y1="33.921" x2="90.233" y2="28.242"/>
	
		<line fill="none" stroke="#000000" stroke-width="3" stroke-linecap="round" stroke-linejoin="round" stroke-miterlimit="10" x1="82.233" y1="33.921" x2="82.233" y2="28.242"/>
	
		<line fill="none" stroke="#000000" stroke-width="3" stroke-linecap="round" stroke-linejoin="round" stroke-miterlimit="10" x1="74.233" y1="33.921" x2="74.233" y2="28.242"/>
	
		<line fill="none" stroke="#000000" stroke-width="3" stroke-linecap="round" stroke-linejoin="round" stroke-miterlimit="10" x1="66.233" y1="33.921" x2="66.233" y2="28.242"/>
	
		<line fill="none" stroke="#000000" stroke-width="3" stroke-linecap="round" stroke-linejoin="round" stroke-miterlimit="10" x1="82.295" y1="33.921" x2="82.295" y2="46.992"/>
	
		<polyline fill="none" stroke="#000000" stroke-width="3" stroke-linecap="round" stroke-linejoin="round" stroke-miterlimit="10" points="
		82.661,47.195 96.199,56.064 96.199,70.838 82.178,80.023 68.158,70.838 68.158,56.064 81.716,47.182 	"/>
	<g>
		<path fill="none" stroke="#000000" stroke-width="3" stroke-linecap="round" stroke-linejoin="round" stroke-miterlimit="10" d="
			M79.884,67.694c0,0-4.243-3.292-4.243-4.243s4.243-4.243,4.243-4.243"/>
		<path fill="none" stroke="#000000" stroke-width="3" stroke-linecap="round" stroke-linejoin="round" stroke-miterlimit="10" d="
			M84.826,67.694c0,0,4.243-3.292,4.243-4.243s-4.243-4.243-4.243-4.243"/>
	</g>
</g>
<path fill="none" stroke="#000000" stroke-width="3" stroke-linecap="round" stroke-linejoin="round" stroke-miterlimit="10" d="
	M78.505,217.38c-7.525,7.525-30.158,30.158-30.158,30.158s-21.148-0.003-16.527,17.814l7.858-7.858l7.161,1.339l1.339,7.161
	l-7.858,7.858c17.817,4.622,17.814-16.527,17.814-16.527s12.883-12.883,20.408-20.408"/>
<g>
	
		<polyline fill="none" stroke="#000000" stroke-width="3" stroke-linecap="round" stroke-linejoin="round" stroke-miterlimit="10" points="
		79.1,179.425 63.975,179.471 63.975,193.471 79.1,193.471 	"/>
	
		<polyline fill="none" stroke="#000000" stroke-width="3" stroke-linecap="round" stroke-linejoin="round" stroke-miterlimit="10" points="
		63.975,182.93 56.831,182.93 56.831,189.966 63.975,189.966 	"/>
	<path fill="none" stroke="#000000" stroke-width="3" stroke-linecap="round" stroke-linejoin="round" stroke-miterlimit="10" d="
		M56.228,186.448c0,0-2.893,0-5.289,0c-4.184,0-6.335-4.587-11.408-7.71c0,0-16.859-11.874-16.859,13.712
		c0,1.962-1.713,5.524-1.713,5.524"/>
	<g>
		<path fill="none" stroke="#000000" stroke-width="3" stroke-linecap="round" stroke-linejoin="round" stroke-miterlimit="10" d="
			M22.516,198.259c4.46,1.658,7.331,6.717,5.673,11.177l-5.539,14.899c-1.658,4.46-6.617,6.731-11.077,5.073l-3.534-1.314
			c-4.46-1.658-6.731-6.617-5.073-11.077l5.539-14.899c1.658-4.46,7.117-6.431,11.577-4.773"/>
		
			<line fill="none" stroke="#000000" stroke-width="3" stroke-linecap="round" stroke-linejoin="round" stroke-miterlimit="10" x1="21.348" y1="197.702" x2="19.331" y2="203.128"/>
		<path fill="none" stroke="#000000" stroke-width="3" stroke-linecap="round" stroke-linejoin="round" stroke-miterlimit="10" d="
			M19.21,203.679c1.075,0.491,1.606,1.761,1.19,2.908l-0.503,1.389c-0.433,1.193-1.726,1.801-2.89,1.357l0,0
			c-1.164-0.444-1.756-1.77-1.324-2.964l0.503-1.389c0.412-1.137,1.607-1.743,2.726-1.413"/>
	</g>
</g>
<g>
	
		<line fill="none" stroke="#000000" stroke-width="3" stroke-linecap="round" stroke-linejoin="round" stroke-miterlimit="10" x1="55.403" y1="117.494" x2="82.358" y2="117.494"/>
	
		<line fill="none" stroke="#000000" stroke-width="3" stroke-linecap="round" stroke-linejoin="round" stroke-miterlimit="10" x1="79.182" y1="131.494" x2="55.403" y2="131.494"/>
	<g>
		<path fill="none" stroke="#000000" stroke-width="3" stroke-linecap="round" stroke-linejoin="round" stroke-miterlimit="10" d="
			M25.335,149.441c0,3.008,2.41,5.446,5.383,5.446h19.233c2.973,0,5.383-2.438,5.383-5.446V98.332c0-3.007-2.41-5.446-5.383-5.446
			H30.719c-2.973,0-5.383,2.438-5.383,5.446v51.109H25.335z"/>
		
			<polyline fill="none" stroke="#000000" stroke-width="3" stroke-linecap="round" stroke-linejoin="round" stroke-miterlimit="10" points="
			50.835,103.865 29.835,103.865 29.835,141.865 50.835,141.865 50.835,103.983 		"/>
		
			<line fill="none" stroke="#000000" stroke-width="3" stroke-linecap="round" stroke-linejoin="round" stroke-miterlimit="10" x1="43.674" y1="99.032" x2="36.996" y2="99.032"/>
		<path fill="none" stroke="#000000" stroke-width="3" stroke-linecap="round" stroke-linejoin="round" stroke-miterlimit="10" d="
			M40.438,150.716c1.333-0.054,2.397-1.152,2.397-2.498c0-1.381-1.119-2.5-2.5-2.5s-2.5,1.119-2.5,2.5
			c0,1.347,1.065,2.445,2.399,2.498"/>
	</g>
</g>
<g>
	<path fill="none" stroke="#000000" stroke-width="3" stroke-linecap="round" stroke-linejoin="round" stroke-miterlimit="10" d="
		M148.619,98.461c7.525-7.525,19.545-19.545,19.545-19.545l9.788,9.788c0,0-12.436,12.436-19.961,19.961"/>
	
		<polyline fill="none" stroke="#000000" stroke-width="3" stroke-linecap="round" stroke-linejoin="round" stroke-miterlimit="10" points="
		168.165,78.916 174.187,72.893 183.975,82.68 177.952,88.703 	"/>
	<path fill="none" stroke="#000000" stroke-width="3" stroke-linecap="round" stroke-linejoin="round" stroke-miterlimit="10" d="
		M183.288,79.221c0,0,0.556-1.855,4.66-2.368s9.033,1.52,14.852-4.779c5.818-6.298,2.013-14.976-0.556-17.511
		c-2.311-2.311-11.212-6.374-17.511-0.556c-6.298,5.818-4.266,10.748-4.779,14.852c-0.513,4.103-2.368,4.66-2.368,4.66"/>
	<path fill="none" stroke="#000000" stroke-width="3" stroke-linecap="round" stroke-linejoin="round" stroke-miterlimit="10" d="
		M180.953,77.267l8.579-8.579c0,0,5.284-0.118,2.946-4.517c-4.399-2.338-4.517,2.946-4.517,2.946l-8.579,8.579"/>
</g>
<g>
	
		<polyline fill="none" stroke="#000000" stroke-width="3" stroke-linecap="round" stroke-linejoin="round" stroke-miterlimit="10" points="
		166.467,140.737 180.571,140.784 180.571,154.784 166.825,154.728 	"/>
	
		<polyline fill="none" stroke="#000000" stroke-width="3" stroke-linecap="round" stroke-linejoin="round" stroke-miterlimit="10" points="
		180.571,144.242 187.714,144.242 187.714,151.279 180.571,151.279 	"/>
	<path fill="none" stroke="#000000" stroke-width="3" stroke-linecap="round" stroke-linejoin="round" stroke-miterlimit="10" d="
		M188.318,147.76c0,0,4.936,0.074,7.33,0c2.395-0.074,7.355-0.505,12.429-3.628c13.678-8.419,31.587-25.294,49.274,3.08
		c1.038,1.665,1.867,4.931,1.867,4.931"/>
	<g>
		<path fill="none" stroke="#000000" stroke-width="3" stroke-linecap="round" stroke-linejoin="round" stroke-miterlimit="10" d="
			M317.989,191.285c-0.001,1.793-1.341,3.247-2.992,3.246l-98.37-0.062c-1.652-0.001-2.989-1.456-2.988-3.249l0.022-35.429
			c0.001-1.793,1.341-3.231,2.992-3.23h42.565l0,0h55.805c1.652,0.001,2.989,1.502,2.988,3.296L317.989,191.285z"/>
		<g>
			
				<polyline fill="none" stroke="#000000" stroke-width="3" stroke-linecap="round" stroke-linejoin="round" stroke-miterlimit="10" points="
				220.425,159.135 227.39,159.147 227.386,165.352 220.415,165.348 220.419,159.142 			"/>
			
				<polyline fill="none" stroke="#000000" stroke-width="3" stroke-linecap="round" stroke-linejoin="round" stroke-miterlimit="10" points="
				232.028,159.142 238.993,159.153 238.989,165.359 232.017,165.355 232.021,159.149 			"/>
			
				<polyline fill="none" stroke="#000000" stroke-width="3" stroke-linecap="round" stroke-linejoin="round" stroke-miterlimit="10" points="
				243.631,159.149 250.596,159.16 250.592,165.366 243.62,165.361 243.624,159.156 			"/>
			
				<polyline fill="none" stroke="#000000" stroke-width="3" stroke-linecap="round" stroke-linejoin="round" stroke-miterlimit="10" points="
				255.233,159.155 262.198,159.166 262.194,165.372 255.223,165.368 255.227,159.162 			"/>
			
				<polyline fill="none" stroke="#000000" stroke-width="3" stroke-linecap="round" stroke-linejoin="round" stroke-miterlimit="10" points="
				266.836,159.162 273.801,159.173 273.797,165.379 266.825,165.374 266.829,159.169 			"/>
			
				<polyline fill="none" stroke="#000000" stroke-width="3" stroke-linecap="round" stroke-linejoin="round" stroke-miterlimit="10" points="
				280.411,159.172 287.376,159.184 287.372,165.389 280.4,165.385 280.404,159.179 			"/>
			
				<polyline fill="none" stroke="#000000" stroke-width="3" stroke-linecap="round" stroke-linejoin="round" stroke-miterlimit="10" points="
				292.304,159.17 299.269,159.181 299.265,165.387 292.293,165.383 292.297,159.177 			"/>
			
				<polyline fill="none" stroke="#000000" stroke-width="3" stroke-linecap="round" stroke-linejoin="round" stroke-miterlimit="10" points="
				304.197,159.168 311.162,159.179 311.158,165.385 304.186,165.381 304.19,159.175 			"/>
		</g>
		<g>
			
				<polyline fill="none" stroke="#000000" stroke-width="3" stroke-linecap="round" stroke-linejoin="round" stroke-miterlimit="10" points="
				220.425,171.081 227.39,171.092 227.386,177.298 220.415,177.294 220.419,171.088 			"/>
			
				<polyline fill="none" stroke="#000000" stroke-width="3" stroke-linecap="round" stroke-linejoin="round" stroke-miterlimit="10" points="
				232.028,171.088 238.993,171.099 238.989,177.305 232.017,177.3 232.021,171.095 			"/>
			
				<polyline fill="none" stroke="#000000" stroke-width="3" stroke-linecap="round" stroke-linejoin="round" stroke-miterlimit="10" points="
				243.631,171.094 250.596,171.106 250.592,177.311 243.62,177.307 243.624,171.101 			"/>
			
				<polyline fill="none" stroke="#000000" stroke-width="3" stroke-linecap="round" stroke-linejoin="round" stroke-miterlimit="10" points="
				255.233,171.101 262.198,171.112 262.194,177.318 255.223,177.314 255.227,171.108 			"/>
			
				<polyline fill="none" stroke="#000000" stroke-width="3" stroke-linecap="round" stroke-linejoin="round" stroke-miterlimit="10" points="
				266.836,171.107 273.801,171.119 273.797,177.325 266.825,177.32 266.829,171.114 			"/>
			
				<polyline fill="none" stroke="#000000" stroke-width="3" stroke-linecap="round" stroke-linejoin="round" stroke-miterlimit="10" points="
				280.411,171.118 287.376,171.129 287.372,177.335 280.4,177.331 280.404,171.125 			"/>
			
				<polyline fill="none" stroke="#000000" stroke-width="3" stroke-linecap="round" stroke-linejoin="round" stroke-miterlimit="10" points="
				292.304,171.116 299.269,171.127 299.265,177.333 292.293,177.329 292.297,171.123 			"/>
			
				<polyline fill="none" stroke="#000000" stroke-width="3" stroke-linecap="round" stroke-linejoin="round" stroke-miterlimit="10" points="
				304.197,171.114 311.162,171.137 311.151,188.051 304.179,188.046 304.19,171.133 			"/>
		</g>
		<g>
			
				<polyline fill="none" stroke="#000000" stroke-width="3" stroke-linecap="round" stroke-linejoin="round" stroke-miterlimit="10" points="
				220.427,182.597 227.392,182.61 227.389,187.898 220.413,187.891 220.416,182.603 			"/>
			
				<polyline fill="none" stroke="#000000" stroke-width="3" stroke-linecap="round" stroke-linejoin="round" stroke-miterlimit="10" points="
				232.034,182.606 262.2,182.632 262.197,187.92 232.001,187.9 232.004,182.612 			"/>
			
				<polyline fill="none" stroke="#000000" stroke-width="3" stroke-linecap="round" stroke-linejoin="round" stroke-miterlimit="10" points="
				266.832,182.738 273.706,182.751 273.703,188.039 266.819,188.032 266.822,182.744 			"/>
			
				<polyline fill="none" stroke="#000000" stroke-width="3" stroke-linecap="round" stroke-linejoin="round" stroke-miterlimit="10" points="
				280.409,182.601 299.393,182.636 299.39,187.925 280.391,187.895 280.395,182.607 			"/>
		</g>
	</g>
</g>
<g>
	<g>
		
			<polyline fill="none" stroke="#000000" stroke-width="3" stroke-linecap="round" stroke-linejoin="round" stroke-miterlimit="10" points="
			166.004,212.461 186.339,232.73 196.238,222.831 166.65,193.321 		"/>
		
			<polyline fill="none" stroke="#000000" stroke-width="3" stroke-linecap="round" stroke-linejoin="round" stroke-miterlimit="10" points="
			198.099,220.97 184.406,234.663 190.804,240.996 204.504,227.296 198.099,220.97 		"/>
		<path fill="none" stroke="#000000" stroke-width="3" stroke-linecap="round" stroke-linejoin="round" stroke-miterlimit="10" d="
			M195.347,237.455l3.483,3.483l-4.289,4.289c0,0,19.797,6.742,27.094,13.913"/>
		<path fill="none" stroke="#000000" stroke-width="3" stroke-linecap="round" stroke-linejoin="round" stroke-miterlimit="10" d="
			M201.442,231.361l3.483,3.483l4.289-4.289c0,0,6.227,20.312,13.398,27.609"/>
		
			<line fill="none" stroke="#000000" stroke-width="3" stroke-linecap="round" stroke-linejoin="round" stroke-miterlimit="10" x1="210.666" y1="247.141" x2="222.884" y2="259.36"/>
	</g>
	<g>
		
			<polyline fill="none" stroke="#000000" stroke-width="3" stroke-linecap="round" stroke-linejoin="round" stroke-miterlimit="10" points="
			220.477,255.59 222.887,253.18 228.943,259.236 222.887,265.293 216.831,259.236 219.077,256.99 		"/>
		
			<line fill="none" stroke="#000000" stroke-width="3" stroke-linecap="round" stroke-linejoin="round" stroke-miterlimit="10" x1="225.91" y1="256.213" x2="236.395" y2="245.867"/>
		
			<line fill="none" stroke="#000000" stroke-width="3" stroke-linecap="round" stroke-linejoin="round" stroke-miterlimit="10" x1="219.859" y1="262.265" x2="209.442" y2="272.681"/>
		<path fill="none" stroke="#000000" stroke-width="3" stroke-linecap="round" stroke-linejoin="round" stroke-miterlimit="10" d="
			M236.395,245.867c1.398,1.325,3.606,1.302,4.977-0.068c1.394-1.394,1.394-3.653,0-5.047s-3.653-1.394-5.047,0
			c-1.364,1.364-1.393,3.557-0.088,4.956"/>
		<path fill="none" stroke="#000000" stroke-width="3" stroke-linecap="round" stroke-linejoin="round" stroke-miterlimit="10" d="
			M209.337,272.575c-1.4-1.289-3.581-1.255-4.939,0.103c-1.394,1.394-1.394,3.653,0,5.047c1.394,1.394,3.653,1.394,5.047,0
			c1.356-1.356,1.393-3.53,0.111-4.931"/>
	</g>
</g>
<line fill="none" stroke="#000000" stroke-width="3" stroke-linecap="round" stroke-linejoin="round" stroke-miterlimit="10" x1="166" y1="358.5" x2="322" y2="358.5"/>
</svg>
