<?xml version="1.0" encoding="utf-8"?>
<!-- Generator: Adobe Illustrator 17.0.0, SVG Export Plug-In . SVG Version: 6.00 Build 0)  -->
<!DOCTYPE svg PUBLIC "-//W3C//DTD SVG 1.1//EN" "http://www.w3.org/Graphics/SVG/1.1/DTD/svg11.dtd">
<svg version="1.1" id="Calque_1" xmlns="http://www.w3.org/2000/svg" xmlns:xlink="http://www.w3.org/1999/xlink" x="0px" y="0px"
	 width="392.5px" height="265px" viewBox="0 0 392.5 265" enable-background="new 0 0 392.5 265" xml:space="preserve">
<rect x="22.5" y="262" fill="#FFFFFF" width="12" height="5"/>
<rect x="358.5" y="262" fill="#FFFFFF" width="12" height="5"/>
<rect x="125.5" y="262" fill="#FFFFFF" width="141" height="5"/>
<g>
	
		<polyline fill="#FFFFFF" stroke="#000000" stroke-width="3" stroke-linecap="round" stroke-linejoin="round" stroke-miterlimit="10" points="
		0,264.779 22.611,264.805 22.611,144.64 34.15,144.64 34.15,264.779 125.824,264.779 125.824,24.466 266.597,24.466 
		266.597,264.779 358.437,264.779 358.238,144.64 369.951,144.64 370.15,264.779 392.5,264.779 	"/>
	
		<polyline fill="none" stroke="#000000" stroke-width="3" stroke-linecap="round" stroke-linejoin="round" stroke-miterlimit="10" points="
		158.179,24.311 158.179,3.195 141.755,3.195 141.755,24.311 	"/>
	<path fill="none" stroke="#000000" stroke-width="3" stroke-linecap="round" stroke-linejoin="round" stroke-miterlimit="10" d="
		M125.824,144.64H12.774c-5.874,0-10.635-5.252-10.635-11.731l0,0c0-6.479,4.762-11.731,10.635-11.731h113.049"/>
	<path fill="none" stroke="#000000" stroke-width="3" stroke-linecap="round" stroke-linejoin="round" stroke-miterlimit="10" d="
		M266.597,121.178h113.049c5.874,0,10.635,5.252,10.635,11.731l0,0c0,6.479-4.762,11.731-10.635,11.731H266.597"/>
	<path fill="none" stroke="#000000" stroke-width="3" stroke-linecap="round" stroke-linejoin="round" stroke-miterlimit="10" d="
		M37.667,144.631c-6.262-0.246-11.262-5.4-11.262-11.722c0-6.479,5.252-11.731,11.731-11.731s11.731,5.252,11.731,11.731
		c0,6.385-5.101,11.578-11.45,11.728"/>
	<path fill="none" stroke="#000000" stroke-width="3" stroke-linecap="round" stroke-linejoin="round" stroke-miterlimit="10" d="
		M91.531,144.639c-6.395-0.097-11.549-5.312-11.549-11.73c0-6.479,5.252-11.731,11.731-11.731s11.731,5.252,11.731,11.731
		c0,6.44-5.19,11.669-11.616,11.731"/>
	<path fill="none" stroke="#000000" stroke-width="3" stroke-linecap="round" stroke-linejoin="round" stroke-miterlimit="10" d="
		M300.479,144.639c-6.395-0.097-11.549-5.312-11.549-11.73c0-6.479,5.252-11.731,11.731-11.731s11.731,5.252,11.731,11.731
		c0,6.428-5.17,11.649-11.579,11.73"/>
	<path fill="none" stroke="#000000" stroke-width="3" stroke-linecap="round" stroke-linejoin="round" stroke-miterlimit="10" d="
		M354.063,144.64c-6.418-0.07-11.6-5.295-11.6-11.73c0-6.479,5.252-11.731,11.731-11.731c6.479,0,11.731,5.252,11.731,11.731
		c0,6.433-5.177,11.656-11.592,11.73"/>
	<g>
		<path fill="none" stroke="#000000" stroke-width="3" stroke-linecap="round" stroke-linejoin="round" stroke-miterlimit="10" d="
			M243.134,97.716c0-25.916-21.009-46.924-46.924-46.924S149.285,71.8,149.285,97.716H243.134z"/>
		
			<line fill="#FFFFFF" stroke="#000000" stroke-width="3" stroke-linecap="round" stroke-linejoin="round" stroke-miterlimit="10" x1="157.952" y1="72.88" x2="162.316" y2="75.399"/>
		
			<line fill="#FFFFFF" stroke="#000000" stroke-width="3" stroke-linecap="round" stroke-linejoin="round" stroke-miterlimit="10" x1="174.122" y1="56.71" x2="176.641" y2="61.074"/>
		
			<line fill="#FFFFFF" stroke="#000000" stroke-width="3" stroke-linecap="round" stroke-linejoin="round" stroke-miterlimit="10" x1="196.21" y1="50.792" x2="196.21" y2="55.83"/>
		
			<line fill="#FFFFFF" stroke="#000000" stroke-width="3" stroke-linecap="round" stroke-linejoin="round" stroke-miterlimit="10" x1="218.298" y1="56.71" x2="215.778" y2="61.074"/>
		
			<line fill="#FFFFFF" stroke="#000000" stroke-width="3" stroke-linecap="round" stroke-linejoin="round" stroke-miterlimit="10" x1="234.467" y1="72.88" x2="230.104" y2="75.399"/>
		
			<path fill="#FFFFFF" stroke="#000000" stroke-width="3" stroke-linecap="round" stroke-linejoin="round" stroke-miterlimit="10" d="
			M202.075,97.513c0-4.107-2.626-7.436-5.866-7.436c-3.239,0-5.866,3.329-5.866,7.436H202.075z"/>
		
			<polyline fill="none" stroke="#000000" stroke-width="3" stroke-linecap="round" stroke-linejoin="round" stroke-miterlimit="10" points="
			210.392,118.005 149.285,118.005 149.285,110.233 210.391,110.233 		"/>
		<path fill="none" stroke="#000000" stroke-width="3" stroke-linecap="round" stroke-linejoin="round" stroke-miterlimit="10" d="
			M215.625,119.983c-3.169-0.081-5.712-2.675-5.712-5.864c0-3.239,2.626-5.866,5.866-5.866c3.239,0,5.866,2.626,5.866,5.866
			c0,3.197-2.557,5.796-5.738,5.864"/>
		
			<polyline fill="none" stroke="#000000" stroke-width="3" stroke-linecap="round" stroke-linejoin="round" stroke-miterlimit="10" points="
			221.17,110.233 243.134,110.233 243.134,118.005 221.167,118.005 		"/>
	</g>
</g>
</svg>
